<?xml version="1.0" encoding="UTF-8"?>
<svg version="1.1" xmlns="http://www.w3.org/2000/svg" width="512" height="512">
<path d="M0 0 C1.68561698 1.51479439 3.3586884 3.04372999 5.015625 4.58984375 C6.73366836 6.18357599 8.4697471 7.65755801 10.30859375 9.10546875 C16.10288935 14.12719161 20.72261518 20.2118285 25.43359375 26.23046875 C25.86639648 26.77703125 26.29919922 27.32359375 26.74511719 27.88671875 C29.12796676 30.97372009 30.87807735 33.84138953 32.12109375 37.54296875 C37.69164244 34.8844383 42.75835164 31.95792877 47.80859375 28.41796875 C48.8445166 27.69673828 48.8445166 27.69673828 49.90136719 26.9609375 C59.95510608 19.90990295 69.44711074 12.48108046 78.40234375 4.07421875 C80.70022338 1.93481357 83.03768182 -0.11722115 85.43359375 -2.14453125 C91.71503879 -7.60835018 96.7125719 -14.0935417 101.640625 -20.76953125 C102.12917969 -21.32640625 102.61773437 -21.88328125 103.12109375 -22.45703125 C103.78109375 -22.45703125 104.44109375 -22.45703125 105.12109375 -22.45703125 C103.24321396 -15.37003529 100.72956804 -8.99890233 97.30859375 -2.51953125 C96.83284912 -1.61783203 96.35710449 -0.71613281 95.86694336 0.21289062 C87.71551153 15.20848626 77.10309489 28.4500802 65.12109375 40.54296875 C64.30608398 41.36635742 63.49107422 42.18974609 62.65136719 43.03808594 C56.83495783 48.90034302 50.98868375 54.7319653 45.12109375 60.54296875 C45.5078125 61.57292969 45.89453125 62.60289062 46.29296875 63.6640625 C61.18111629 104.04600707 61.03400682 147.55433203 43.25976562 187.11865234 C36.19784034 202.15401213 27.38914621 215.15230572 16.109375 227.3671875 C14.51402554 229.11298249 13.02173643 230.87584977 11.55859375 232.73046875 C-11.60382295 259.45633417 -51.14022562 275.91134861 -85.87890625 278.54296875 C-126.00957199 280.1704832 -164.16101268 271.80962143 -196.23046875 246.5859375 C-199.03720906 244.42085611 -201.91132026 242.47929685 -204.87890625 240.54296875 C-206.255625 241.82880859 -206.255625 241.82880859 -207.66015625 243.140625 C-220.79024769 255.38308861 -220.79024769 255.38308861 -226.87890625 260.54296875 C-228.30203125 261.74953125 -228.30203125 261.74953125 -229.75390625 262.98046875 C-231.87890625 264.54296875 -231.87890625 264.54296875 -233.87890625 264.54296875 C-233.87890625 260.81522632 -233.82345914 258.59119207 -231.27734375 255.765625 C-229.89047944 254.5849162 -228.48283712 253.42830866 -227.05859375 252.29296875 C-225.00878504 250.6472442 -223.20602546 248.92902728 -221.37890625 247.04296875 C-217.72990083 243.32654521 -213.83668265 239.92506858 -209.87890625 236.54296875 C-211.37343063 232.96735936 -213.4116286 230.9539912 -216.25390625 228.35546875 C-231.24467835 213.62427712 -241.76543995 194.15060021 -248.87890625 174.54296875 C-249.21921875 173.62 -249.55953125 172.69703125 -249.91015625 171.74609375 C-251.18259509 168.14085037 -251.87890625 165.40174675 -251.87890625 161.54296875 C-252.51916748 161.88666504 -253.15942871 162.23036133 -253.8190918 162.58447266 C-256.72529804 164.13111641 -259.64530595 165.64965673 -262.56640625 167.16796875 C-264.07750977 167.98007812 -264.07750977 167.98007812 -265.61914062 168.80859375 C-266.59560547 169.31132812 -267.57207031 169.8140625 -268.578125 170.33203125 C-269.47362061 170.80334473 -270.36911621 171.2746582 -271.29174805 171.76025391 C-274.54340638 172.74400559 -275.93006623 172.09058692 -278.87890625 170.54296875 C-275.1114611 166.12306103 -270.23223474 163.62392868 -265.25390625 160.79296875 C-264.3825 160.28636719 -263.51109375 159.77976562 -262.61328125 159.2578125 C-256.14484712 155.54296875 -256.14484712 155.54296875 -253.87890625 155.54296875 C-254.18570313 154.4240625 -254.4925 153.30515625 -254.80859375 152.15234375 C-255.9941556 147.39755071 -256.54991454 142.66543949 -257.00390625 137.79296875 C-257.08737305 136.90609375 -257.17083984 136.01921875 -257.25683594 135.10546875 C-260.83038416 95.19841598 -248.98461203 53.9931068 -223.50683594 22.86669922 C-220.8735168 19.79955641 -218.11483484 16.86950796 -215.28369141 13.98291016 C-213.85114926 12.51451711 -212.44854508 11.02127706 -211.046875 9.5234375 C-156.74943012 -47.65154285 -59.46714153 -50.752825 0 0 Z " fill="#0E3F92" transform="translate(342.87890625,134.45703125)"/>
<path d="M0 0 C20.58105013 -1.03910839 40.37888644 12.19573183 55.9609375 24.19140625 C56.77860596 24.81426514 56.77860596 24.81426514 57.61279297 25.44970703 C73.77075343 37.93001886 95.46102438 56.29266325 103.9609375 75.19140625 C105.89813128 75.24546747 107.83575671 75.2842265 109.7734375 75.31640625 C110.85238281 75.33960938 111.93132812 75.3628125 113.04296875 75.38671875 C116.15496618 75.42164342 116.15496618 75.42164342 118.9609375 73.19140625 C118.9609375 78.14140625 118.9609375 83.09140625 118.9609375 88.19140625 C115.9909375 87.20140625 115.9909375 87.20140625 112.9609375 86.19140625 C113.6621875 87.30515625 114.3634375 88.41890625 115.0859375 89.56640625 C121.30155921 99.53205746 126.89347843 109.59927376 131.9609375 120.19140625 C132.36183594 120.93648438 132.76273438 121.6815625 133.17578125 122.44921875 C133.9609375 124.19140625 133.9609375 124.19140625 133.9609375 127.19140625 C134.6209375 127.19140625 135.2809375 127.19140625 135.9609375 127.19140625 C136.19167969 126.16144531 136.42242187 125.13148438 136.66015625 124.0703125 C138.57794084 115.64982127 140.6837685 107.34126028 143.26025391 99.09594727 C144.44066413 95.25714549 145.171827 91.68249385 145.5234375 87.69140625 C146.61265611 81.9284496 150.73151801 79.04602617 155.36328125 75.84375 C161.54512525 73.00453175 167.27189278 73.45122507 173.9609375 74.19140625 C184.68359375 102.78515625 184.68359375 102.78515625 185.43603516 104.79223633 C186.14007443 106.66911142 186.84542005 108.54549631 187.55078125 110.421875 C188.57439115 113.14981348 189.58455501 115.88244629 190.58984375 118.6171875 C190.99650269 119.71740234 190.99650269 119.71740234 191.41137695 120.83984375 C191.93003163 122.24361627 192.44567889 123.64850503 192.95776367 125.0546875 C194.06895605 128.05371622 195.17570406 130.51355609 196.9609375 133.19140625 C186.0709375 133.19140625 175.1809375 133.19140625 163.9609375 133.19140625 C164.6209375 131.87140625 165.2809375 130.55140625 165.9609375 129.19140625 C165.9609375 126.22140625 165.9609375 123.25140625 165.9609375 120.19140625 C159.3609375 120.19140625 152.7609375 120.19140625 145.9609375 120.19140625 C145.29011711 128.59512146 145.29011711 128.59512146 147.9609375 133.19140625 C144.3309375 133.19140625 140.7009375 133.19140625 136.9609375 133.19140625 C137.5590625 134.51140625 138.1571875 135.83140625 138.7734375 137.19140625 C142.85103026 147.53775373 144.21910039 158.14921772 144.3359375 169.19140625 C144.34979492 169.96798584 144.36365234 170.74456543 144.37792969 171.54467773 C144.3234391 178.21618991 142.77977432 184.07186787 138.7109375 189.50390625 C134.08056749 194.02904058 129.42773726 195.55271423 123.01074219 195.65869141 C122.31368164 195.6488623 121.61662109 195.6390332 120.8984375 195.62890625 C120.16399414 195.6242334 119.42955078 195.61956055 118.67285156 195.61474609 C109.56625966 195.37303034 101.34800959 192.63942478 92.9609375 189.19140625 C92.9609375 188.53140625 92.9609375 187.87140625 92.9609375 187.19140625 C93.88712891 187.48144531 93.88712891 187.48144531 94.83203125 187.77734375 C97.53452712 188.60824811 100.24515759 189.40505755 102.9609375 190.19140625 C103.66734375 190.40410156 104.37375 190.61679687 105.1015625 190.8359375 C112.83993958 192.88867493 122.81297029 193.91403263 130.28125 190.8125 C135.67671376 187.54848038 137.79476 182.96787959 139.9609375 177.19140625 C143.13252491 163.84886609 140.6640006 146.17567058 133.9609375 134.19140625 C131.93542681 132.87212373 131.93542681 132.87212373 129.9609375 132.19140625 C130.6209375 131.20140625 131.2809375 130.21140625 131.9609375 129.19140625 C130.86840406 125.92996932 130.86840406 125.92996932 129.0859375 122.50390625 C128.22355469 120.73466797 128.22355469 120.73466797 127.34375 118.9296875 C126.88742187 118.02605469 126.43109375 117.12242187 125.9609375 116.19140625 C125.6309375 117.36703125 125.3009375 118.54265625 124.9609375 119.75390625 C122.94645232 125.07252367 119.54072297 127.97823527 114.9609375 131.19140625 C114.34863281 131.62839844 113.73632812 132.06539062 113.10546875 132.515625 C103.76949756 137.82650681 90.06785756 135.77348511 79.84594727 134.25878906 C77.74573063 134.02010717 77.74573063 134.02010717 75.3984375 135.62890625 C74.9240625 136.14453125 74.4496875 136.66015625 73.9609375 137.19140625 C73.6309375 135.87140625 73.3009375 134.55140625 72.9609375 133.19140625 C72.34089844 133.65289062 71.72085938 134.114375 71.08203125 134.58984375 C66.74271614 137.78590408 62.40000681 140.92777344 57.890625 143.87890625 C57.20814697 144.32572754 56.52566895 144.77254883 55.82250977 145.23291016 C54.46500649 146.1163467 53.10353758 146.99372157 51.73803711 147.86474609 C50.11166165 148.923124 48.5311475 150.05136174 46.9609375 151.19140625 C46.9609375 151.85140625 46.9609375 152.51140625 46.9609375 153.19140625 C48.84204438 154.91575423 50.72743546 156.53057263 52.7109375 158.12890625 C53.24976563 158.57169922 53.78859375 159.01449219 54.34375 159.47070312 C56.62436463 161.33691339 58.89847574 163.14870175 61.33203125 164.8125 C62.9609375 166.19140625 62.9609375 166.19140625 63.2734375 169.31640625 C62.9609375 172.19140625 62.9609375 172.19140625 61.9609375 173.19140625 C56.0028568 173.19140625 53.16628853 171.21047594 48.89453125 167.171875 C40.9609375 159.0459517 40.9609375 159.0459517 40.9609375 156.19140625 C33.03282121 160.22500928 26.1630343 165.33660264 19.06152344 170.63818359 C16.19776967 172.7557105 13.29931865 174.82306305 10.40112305 176.89306641 C1.09317622 183.54894948 -7.97292642 190.4781102 -16.9609375 197.55859375 C-18.89729711 199.08001916 -20.8412123 200.5909858 -22.7890625 202.09765625 C-33.03777273 210.04333307 -43.27010855 218.14143017 -52.28125 227.4921875 C-55.39015808 230.49746531 -58.80968953 233.13156068 -62.1796875 235.8359375 C-65.93472356 238.9292254 -69.49189164 242.21525433 -73.04296875 245.5390625 C-75.0390625 247.19140625 -75.0390625 247.19140625 -77.0390625 247.19140625 C-77.0390625 243.46366382 -76.98361539 241.23962957 -74.4375 238.4140625 C-73.05063569 237.2333537 -71.64299337 236.07674616 -70.21875 234.94140625 C-68.16894129 233.2956817 -66.36618171 231.57746478 -64.5390625 229.69140625 C-60.89005708 225.97498271 -56.9968389 222.57350608 -53.0390625 219.19140625 C-54.53358688 215.61579686 -56.57178485 213.6024287 -59.4140625 211.00390625 C-74.4048346 196.27271462 -84.9255962 176.79903771 -92.0390625 157.19140625 C-92.379375 156.2684375 -92.7196875 155.34546875 -93.0703125 154.39453125 C-94.34275134 150.78928787 -95.0390625 148.05018425 -95.0390625 144.19140625 C-95.67932373 144.53510254 -96.31958496 144.87879883 -96.97924805 145.23291016 C-99.88545429 146.77955391 -102.8054622 148.29809423 -105.7265625 149.81640625 C-107.23766602 150.62851562 -107.23766602 150.62851562 -108.77929688 151.45703125 C-109.75576172 151.95976562 -110.73222656 152.4625 -111.73828125 152.98046875 C-112.63377686 153.45178223 -113.52927246 153.9230957 -114.4519043 154.40869141 C-117.70356263 155.39244309 -119.09022248 154.73902442 -122.0390625 153.19140625 C-118.52925272 149.22219728 -114.45429841 146.80582661 -109.9140625 144.19140625 C-108.70085327 143.48987427 -108.70085327 143.48987427 -107.46313477 142.77416992 C-78.1041615 126.19140625 -78.1041615 126.19140625 -71.0390625 126.19140625 C-70.91186793 119.91110965 -70.8245469 113.63114744 -70.7644043 107.34985352 C-70.73932219 105.21496162 -70.70524805 103.08015507 -70.66186523 100.94555664 C-70.60093668 97.86973978 -70.57278926 94.79506205 -70.55078125 91.71875 C-70.52497482 90.77055893 -70.4991684 89.82236786 -70.47257996 88.84544373 C-70.46984283 82.31958467 -71.74623837 79.13186751 -76.0390625 74.19140625 C-53.00080454 72.0881945 -53.00080454 72.0881945 -46.953125 76.3828125 C-45.31466952 79.18392744 -44.08402189 81.93202798 -42.97363281 84.97705078 C-41.04005798 89.55843107 -38.17272746 93.67501202 -35.5390625 97.87890625 C-34.47967753 99.60752551 -33.42705034 101.34031362 -32.3828125 103.078125 C-31.93099609 103.82280029 -31.47917969 104.56747559 -31.01367188 105.3347168 C-30.0390625 107.19140625 -30.0390625 107.19140625 -30.0390625 109.19140625 C-29.3790625 109.19140625 -28.7190625 109.19140625 -28.0390625 109.19140625 C-28.14907874 104.62841557 -28.27967861 100.06623919 -28.4140625 95.50390625 C-28.445 94.21033203 -28.4759375 92.91675781 -28.5078125 91.58398438 C-28.54648438 90.33681641 -28.58515625 89.08964844 -28.625 87.8046875 C-28.6564209 86.65782471 -28.6878418 85.51096191 -28.72021484 84.3293457 C-29.03835799 81.19833969 -29.54437575 78.95679664 -31.0390625 76.19140625 C-32.5240625 75.69640625 -32.5240625 75.69640625 -34.0390625 75.19140625 C-34.0390625 74.86140625 -34.0390625 74.53140625 -34.0390625 74.19140625 C-28.0990625 74.19140625 -22.1590625 74.19140625 -16.0390625 74.19140625 C-17.0290625 75.84140625 -18.0190625 77.49140625 -19.0390625 79.19140625 C-19.53695457 82.17967448 -19.53695457 82.17967448 -19.55078125 85.3671875 C-19.60395508 87.10258789 -19.60395508 87.10258789 -19.65820312 88.87304688 C-19.68076172 90.07123047 -19.70332031 91.26941406 -19.7265625 92.50390625 C-19.76072266 93.72142578 -19.79488281 94.93894531 -19.83007812 96.19335938 C-19.91241067 99.19261639 -19.98161171 102.19158639 -20.0390625 105.19140625 C-18.91886719 104.75828125 -17.79867187 104.32515625 -16.64453125 103.87890625 C-15.17197454 103.31614572 -13.69931278 102.75366001 -12.2265625 102.19140625 C-11.48857422 101.90523438 -10.75058594 101.6190625 -9.99023438 101.32421875 C-8.92192383 100.91816406 -8.92192383 100.91816406 -7.83203125 100.50390625 C-7.1774292 100.25253906 -6.52282715 100.00117188 -5.84838867 99.7421875 C-4.0390625 99.19140625 -4.0390625 99.19140625 -1.0390625 99.19140625 C-1.34610107 98.56274658 -1.65313965 97.93408691 -1.96948242 97.28637695 C-29.59580992 40.56550587 -29.59580992 40.56550587 -21.3515625 16.06640625 C-18.22474655 8.77414667 -14.18580757 4.63715834 -7.0390625 1.19140625 C-4.66006325 0.41983892 -2.47800719 0.23260987 0 0 Z " fill="#104092" transform="translate(186.0390625,151.80859375)"/>
<path d="M0 0 C15.59964106 41.54704402 16.55395493 85.58444524 -1.86132812 126.57568359 C-8.92325341 141.61104338 -17.73194754 154.60933697 -29.01171875 166.82421875 C-30.60706821 168.57001374 -32.09935732 170.33288102 -33.5625 172.1875 C-56.7249167 198.91336542 -96.26131937 215.36837986 -131 218 C-172.65271551 219.68924176 -211.0689882 210.37506765 -244 184 C-244.93457031 183.25363281 -245.86914062 182.50726563 -246.83203125 181.73828125 C-247.54746094 181.16464844 -248.26289063 180.59101563 -249 180 C-247.42399849 175.78741734 -244.29236615 173.36253 -240.9375 170.5625 C-240.3197168 170.04026855 -239.70193359 169.51803711 -239.06542969 168.97998047 C-233.00254575 163.9064311 -226.73055317 159.11718865 -220.421875 154.35546875 C-216.66615065 151.5186805 -212.95933762 148.62424567 -209.26049805 145.71386719 C-200.75238803 139.02793906 -192.06034263 132.68700668 -183.17041016 126.52050781 C-180.85208259 124.89637462 -178.55558776 123.24441556 -176.26171875 121.5859375 C-175.48578369 121.02793457 -174.70984863 120.46993164 -173.91040039 119.89501953 C-172.41754599 118.82047056 -170.92827358 117.74092274 -169.44311523 116.65576172 C-168.43873413 115.93670654 -168.43873413 115.93670654 -167.4140625 115.203125 C-166.8257666 114.77676758 -166.2374707 114.35041016 -165.63134766 113.91113281 C-164 113 -164 113 -161 113 C-159.16796875 115.01171875 -159.16796875 115.01171875 -157.1875 117.6875 C-151.53598445 125.20351812 -151.53598445 125.20351812 -143.125 128.8125 C-142.09375 128.874375 -141.0625 128.93625 -140 129 C-139.42849793 126.23912741 -139.42849793 126.23912741 -140 123 C-141.97081915 120.72088353 -144.35056098 119.09229342 -146.8125 117.375 C-148.09328542 116.45005967 -149.3707422 115.52048946 -150.64453125 114.5859375 C-151.50075073 113.98338135 -151.50075073 113.98338135 -152.37426758 113.36865234 C-154.26352407 111.77814748 -155.58530916 110.0156333 -157 108 C-153.19238875 105.45336079 -149.38377497 102.90823073 -145.57421875 100.36450195 C-144.27804246 99.49870684 -142.98214247 98.63249794 -141.68652344 97.76586914 C-139.82559305 96.52121164 -137.96367835 95.27803927 -136.1015625 94.03515625 C-135.52129303 93.64658951 -134.94102356 93.25802277 -134.34317017 92.85768127 C-130.22774341 90.11387171 -130.22774341 90.11387171 -128 89 C-127.67 90.32 -127.34 91.64 -127 93 C-126.38451294 92.24867798 -126.38451294 92.24867798 -125.7565918 91.48217773 C-124 90 -124 90 -122.06567383 89.91040039 C-121.34919678 90.03406982 -120.63271973 90.15773926 -119.89453125 90.28515625 C-107.19550322 92.1565109 -94.82785905 92.92105125 -84 85 C-79.33337314 81.1593248 -78.09079573 76.75146839 -77 71 C-74.58296558 74.01594561 -72.83666585 77.06931009 -71.1875 80.5625 C-70.72730469 81.51253906 -70.26710938 82.46257812 -69.79296875 83.44140625 C-69.53128906 84.28574219 -69.26960937 85.13007813 -69 86 C-69.66 86.99 -70.32 87.98 -71 89 C-70.39414062 89.18691406 -69.78828125 89.37382812 -69.1640625 89.56640625 C-66.01843863 91.65024011 -65.41294095 94.47868816 -64.375 97.9375 C-64.16335205 98.61337158 -63.9517041 99.28924316 -63.73364258 99.9855957 C-59.8011473 112.8896212 -57.64244755 126.17850696 -63 139 C-65.91802853 144.25245135 -69.2007554 148.06691847 -75 150 C-86.63395433 150.90983489 -98.59351284 149.73260583 -109 144 C-109 144.66 -109 145.32 -109 146 C-107.95585937 146.18369141 -107.95585937 146.18369141 -106.890625 146.37109375 C-103.74898532 147.05461265 -100.80226274 148.05351741 -97.75 149.0625 C-88.63010322 151.68327034 -77.26057506 153.30824305 -68.25 149.5 C-63.83333997 146.72097796 -60.89691513 142.09192277 -59.45581055 137.12402344 C-56.17067121 121.81566125 -60.24402256 104.49440744 -65 90 C-61.7 89.67 -58.4 89.34 -55 89 C-55.66 88.01 -56.32 87.02 -57 86 C-56.67 83.03 -56.34 80.06 -56 77 C-49.4 77 -42.8 77 -36 77 C-34.49065783 80.01868434 -34.82489328 82.67297229 -35 86 C-35.66 86.99 -36.32 87.98 -37 89 C-26.77 89 -16.54 89 -6 89 C-6.99 87.68 -7.98 86.36 -9 85 C-10.00805664 82.78710938 -10.00805664 82.78710938 -10.91015625 80.34375 C-11.25570557 79.41643066 -11.60125488 78.48911133 -11.95727539 77.53369141 C-12.32199951 76.53257324 -12.68672363 75.53145508 -13.0625 74.5 C-13.63762329 72.94224854 -13.63762329 72.94224854 -14.22436523 71.35302734 C-15.49240494 67.90540882 -16.74763749 64.4533429 -18 61 C-18.46481736 59.72167009 -18.92966162 58.44334996 -19.39453125 57.16503906 C-20.79094395 53.32090095 -22.17803338 49.47345376 -23.5625 45.625 C-24.22487671 43.78905273 -24.22487671 43.78905273 -24.90063477 41.91601562 C-25.30596436 40.78099609 -25.71129395 39.64597656 -26.12890625 38.4765625 C-26.67140015 36.9618335 -26.67140015 36.9618335 -27.22485352 35.41650391 C-28 33 -28 33 -28 31 C-31.96 31 -35.92 31 -40 31 C-36.51135101 27.36974533 -32.91188757 24.28510466 -28.875 21.25 C-20.5134904 14.90649827 -12.33009841 8.38468941 -4.65625 1.21484375 C-3 0 -3 0 0 0 Z " fill="#0F4092" transform="translate(388,195)"/>
<path d="M0 0 C11.62547252 4.90393384 22.03900054 11.7651104 31.828125 19.67578125 C33.25898438 20.80113281 33.25898438 20.80113281 34.71875 21.94921875 C42.15438664 27.99305674 48.97017413 34.61177028 55.765625 41.36328125 C56.66595459 42.2543457 57.56628418 43.14541016 58.49389648 44.06347656 C59.35571533 44.9294043 60.21753418 45.79533203 61.10546875 46.6875 C61.87109131 47.45537842 62.63671387 48.22325684 63.42553711 49.0144043 C66.47594622 52.393381 69.15063122 55.99834769 71.828125 59.67578125 C65.83341998 61.77820058 59.8376201 63.87747433 53.84106445 65.97460938 C51.80305304 66.68775967 49.76528932 67.40161826 47.7277832 68.11621094 C44.79183421 69.14576472 41.85499123 70.17273192 38.91796875 71.19921875 C38.01352524 71.51700287 37.10908173 71.83478699 36.17723083 72.16220093 C31.426893 73.81947979 26.68222245 75.35167367 21.828125 76.67578125 C20.508125 73.70578125 19.188125 70.73578125 17.828125 67.67578125 C8.258125 67.67578125 -1.311875 67.67578125 -11.171875 67.67578125 C-9.851875 69.32578125 -8.531875 70.97578125 -7.171875 72.67578125 C-7.296875 76.05078125 -7.296875 76.05078125 -8.171875 79.67578125 C-8.336875 80.91328125 -8.501875 82.15078125 -8.671875 83.42578125 C-10.171875 86.67578125 -10.171875 86.67578125 -12.28710938 87.64941406 C-13.10501953 87.89014648 -13.92292969 88.13087891 -14.765625 88.37890625 C-15.99829102 88.75257324 -15.99829102 88.75257324 -17.25585938 89.13378906 C-17.88814453 89.31264648 -18.52042969 89.49150391 -19.171875 89.67578125 C-31.46271531 67.43473607 -47.0076642 38.17751928 -40.453125 11.78125 C-39.52031783 9.5733556 -38.50302064 7.66599574 -37.171875 5.67578125 C-36.78644531 5.09441406 -36.40101563 4.51304687 -36.00390625 3.9140625 C-27.40059153 -7.58486624 -11.65990098 -4.32977494 0 0 Z " fill="#0D3E91" transform="translate(208.171875,159.32421875)"/>
<path d="M0 0 C20.58105013 -1.03910839 40.37888644 12.19573183 55.9609375 24.19140625 C56.5060498 24.60664551 57.05116211 25.02188477 57.61279297 25.44970703 C73.77075343 37.93001886 95.46102438 56.29266325 103.9609375 75.19140625 C105.89813128 75.24546747 107.83575671 75.2842265 109.7734375 75.31640625 C110.85238281 75.33960938 111.93132812 75.3628125 113.04296875 75.38671875 C116.15496618 75.42164342 116.15496618 75.42164342 118.9609375 73.19140625 C118.9609375 78.14140625 118.9609375 83.09140625 118.9609375 88.19140625 C115.9909375 87.20140625 115.9909375 87.20140625 112.9609375 86.19140625 C113.6621875 87.30515625 114.3634375 88.41890625 115.0859375 89.56640625 C121.30155921 99.53205746 126.89347843 109.59927376 131.9609375 120.19140625 C132.36183594 120.93648438 132.76273438 121.6815625 133.17578125 122.44921875 C133.9609375 124.19140625 133.9609375 124.19140625 133.9609375 127.19140625 C134.6209375 127.19140625 135.2809375 127.19140625 135.9609375 127.19140625 C136.30705078 125.64646484 136.30705078 125.64646484 136.66015625 124.0703125 C138.57794084 115.64982127 140.6837685 107.34126028 143.26025391 99.09594727 C144.44066413 95.25714549 145.171827 91.68249385 145.5234375 87.69140625 C146.61265611 81.9284496 150.73151801 79.04602617 155.36328125 75.84375 C161.54512525 73.00453175 167.27189278 73.45122507 173.9609375 74.19140625 C184.68359375 102.78515625 184.68359375 102.78515625 185.43603516 104.79223633 C186.14007443 106.66911142 186.84542005 108.54549631 187.55078125 110.421875 C188.57439115 113.14981348 189.58455501 115.88244629 190.58984375 118.6171875 C190.86094971 119.35066406 191.13205566 120.08414063 191.41137695 120.83984375 C191.93003163 122.24361627 192.44567889 123.64850503 192.95776367 125.0546875 C194.06895605 128.05371622 195.17570406 130.51355609 196.9609375 133.19140625 C186.0709375 133.19140625 175.1809375 133.19140625 163.9609375 133.19140625 C164.6209375 131.87140625 165.2809375 130.55140625 165.9609375 129.19140625 C165.9609375 126.22140625 165.9609375 123.25140625 165.9609375 120.19140625 C159.3609375 120.19140625 152.7609375 120.19140625 145.9609375 120.19140625 C145.29011711 128.59512146 145.29011711 128.59512146 147.9609375 133.19140625 C144.3309375 133.19140625 140.7009375 133.19140625 136.9609375 133.19140625 C137.5590625 134.51140625 138.1571875 135.83140625 138.7734375 137.19140625 C142.85103026 147.53775373 144.21910039 158.14921772 144.3359375 169.19140625 C144.34979492 169.96798584 144.36365234 170.74456543 144.37792969 171.54467773 C144.3234391 178.21618991 142.77977432 184.07186787 138.7109375 189.50390625 C134.08056749 194.02904058 129.42773726 195.55271423 123.01074219 195.65869141 C122.31368164 195.6488623 121.61662109 195.6390332 120.8984375 195.62890625 C120.16399414 195.6242334 119.42955078 195.61956055 118.67285156 195.61474609 C109.56625966 195.37303034 101.34800959 192.63942478 92.9609375 189.19140625 C92.9609375 188.53140625 92.9609375 187.87140625 92.9609375 187.19140625 C93.88712891 187.48144531 93.88712891 187.48144531 94.83203125 187.77734375 C97.53452712 188.60824811 100.24515759 189.40505755 102.9609375 190.19140625 C103.66734375 190.40410156 104.37375 190.61679687 105.1015625 190.8359375 C112.83993958 192.88867493 122.81297029 193.91403263 130.28125 190.8125 C135.67671376 187.54848038 137.79476 182.96787959 139.9609375 177.19140625 C143.13252491 163.84886609 140.6640006 146.17567058 133.9609375 134.19140625 C131.93542681 132.87212373 131.93542681 132.87212373 129.9609375 132.19140625 C130.6209375 131.20140625 131.2809375 130.21140625 131.9609375 129.19140625 C130.86840406 125.92996932 130.86840406 125.92996932 129.0859375 122.50390625 C128.22355469 120.73466797 128.22355469 120.73466797 127.34375 118.9296875 C126.88742187 118.02605469 126.43109375 117.12242187 125.9609375 116.19140625 C125.6309375 117.36703125 125.3009375 118.54265625 124.9609375 119.75390625 C122.94645232 125.07252367 119.54072297 127.97823527 114.9609375 131.19140625 C114.34863281 131.62839844 113.73632812 132.06539062 113.10546875 132.515625 C103.76949756 137.82650681 90.06785756 135.77348511 79.84594727 134.25878906 C77.74573063 134.02010717 77.74573063 134.02010717 75.3984375 135.62890625 C74.9240625 136.14453125 74.4496875 136.66015625 73.9609375 137.19140625 C73.3359375 134.56640625 73.3359375 134.56640625 73.9609375 131.19140625 C77.90278691 127.16800133 82.17145214 125.33515482 87.75390625 124.88671875 C90.31927333 124.92217298 92.88473854 125.01507577 95.4453125 125.17578125 C99.0759219 125.19191729 101.60998585 124.52767531 104.9609375 123.19140625 C103.75735153 119.76581541 102.60201104 117.65882016 99.9609375 115.19140625 C105.79499376 110.84487609 111.5343269 106.61893191 117.9609375 103.19140625 C117.07332344 100.52856408 116.23763903 98.95257398 114.67578125 96.6875 C114.22783203 96.02943359 113.77988281 95.37136719 113.31835938 94.69335938 C112.36866627 93.31258137 111.41813975 91.93237622 110.46679688 90.55273438 C106.9609375 85.397654 106.9609375 85.397654 106.9609375 83.19140625 C105.02374372 83.13734503 103.08611829 83.098586 101.1484375 83.06640625 C100.06949219 83.04320312 98.99054688 83.02 97.87890625 82.99609375 C94.76690882 82.96116908 94.76690882 82.96116908 91.9609375 85.19140625 C91.83278385 87.57667955 91.83278385 87.57667955 92.9609375 90.19140625 C95.42477043 91.97334286 98.15457735 93.04975893 100.9609375 94.19140625 C101.86972656 94.56652344 102.77851563 94.94164062 103.71484375 95.328125 C106.12244436 96.3041793 108.53673562 97.25749241 110.9609375 98.19140625 C110.9609375 99.18140625 110.9609375 100.17140625 110.9609375 101.19140625 C108.57266061 103.46742762 105.72097399 105.14577519 102.9609375 106.94140625 C102.21714844 107.46089844 101.47335937 107.98039062 100.70703125 108.515625 C96.94601411 110.98154407 94.20751466 112.62151383 89.62890625 112.125 C82.41974757 110.29008102 78.30739055 107.19973841 73.9609375 101.19140625 C72.20713099 95.92998671 71.93873693 90.15828107 73.76171875 84.8671875 C76.79278077 79.39877664 81.10199784 76.24874384 86.9609375 74.19140625 C90.63325367 73.55645094 94.23717646 73.26796956 97.9609375 73.19140625 C77.75055622 47.01635657 45.82002917 10.89195236 10.9609375 5.19140625 C3.24855129 4.46041331 -4.12211775 3.77068415 -10.52734375 8.703125 C-15.53740894 13.63551476 -17.82916896 19.12325655 -18.3046875 26.07421875 C-18.31382751 27.4882613 -18.30803841 28.90246149 -18.2890625 30.31640625 C-18.28011963 31.07139404 -18.27117676 31.82638184 -18.26196289 32.60424805 C-17.82057607 54.0949836 -8.56970759 73.06319608 0.94873047 91.94335938 C1.88689315 94.02695849 2.49147423 95.96097669 2.9609375 98.19140625 C1.6409375 98.19140625 0.3209375 98.19140625 -1.0390625 98.19140625 C-13.64901087 75.33987546 -28.38309313 46.0096933 -22.3125 18.953125 C-19.98999245 11.97616126 -16.92356469 6.78439349 -10.5390625 2.87890625 C-6.76932444 1.06135397 -4.10601285 0.38543033 0 0 Z " fill="#F5F4F8" transform="translate(186.0390625,151.80859375)"/>
<path d="M0 0 C0.66 0 1.32 0 2 0 C0.12212021 7.08699596 -2.39152571 13.45812892 -5.8125 19.9375 C-6.52611694 21.29004883 -6.52611694 21.29004883 -7.25415039 22.66992188 C-15.41415042 37.68127979 -26.04088789 50.86817003 -38 63 C-38.75071777 63.76973145 -39.50143555 64.53946289 -40.27490234 65.33251953 C-42.79968351 67.91778043 -45.33499042 70.49220318 -47.875 73.0625 C-48.68412842 73.88492188 -49.49325684 74.70734375 -50.3269043 75.5546875 C-54.33902738 79.57139015 -58.17894585 82.96005752 -63 86 C-65.06905052 87.74799096 -67.10262067 89.512851 -69.125 91.3125 C-80.60545591 101.3273658 -92.85228092 110.81988393 -105.90625 118.703125 C-106.5971875 119.13109375 -107.288125 119.5590625 -108 120 C-108.71285156 120.40734375 -109.42570312 120.8146875 -110.16015625 121.234375 C-112.86805563 123.83303853 -113.1414903 126.36109851 -113.9375 130 C-114.26673776 131.43914409 -114.59753617 132.87793181 -114.9296875 134.31640625 C-115.10081055 135.0758252 -115.27193359 135.83524414 -115.44824219 136.61767578 C-116.40428025 140.74556046 -117.48415246 144.84018552 -118.5625 148.9375 C-118.76029053 149.70513672 -118.95808105 150.47277344 -119.16186523 151.26367188 C-120.55478693 156.58951517 -122.20124223 161.79768774 -124 167 C-124.66 167 -125.32 167 -126 167 C-126.46148437 165.89785156 -126.92296875 164.79570312 -127.3984375 163.66015625 C-131.84584321 153.24392483 -136.942087 143.53130778 -142.86132812 133.88134766 C-144.63319107 130.95382281 -146.31561916 127.97857255 -148 125 C-143.25 126.875 -143.25 126.875 -141 128 C-141.495 121.07 -141.495 121.07 -142 114 C-142.99 114.99 -142.99 114.99 -144 116 C-148.13504555 116.23405918 -152.03258307 116.22359588 -156 115 C-158.01953125 112.93359375 -158.01953125 112.93359375 -159.8125 110.4375 C-160.41707031 109.61121094 -161.02164062 108.78492188 -161.64453125 107.93359375 C-162.09183594 107.29550781 -162.53914063 106.65742188 -163 106 C-161.59916818 103.19833637 -160.05799531 103.05018203 -157.15625 101.92578125 C-155.58907227 101.3073938 -155.58907227 101.3073938 -153.99023438 100.67651367 C-152.83845703 100.22638916 -151.68667969 99.77626465 -150.5 99.3125 C-128.78687268 90.62987707 -107.48448131 81.01061668 -86.6875 70.3125 C-85.56085938 69.73653076 -84.43421875 69.16056152 -83.2734375 68.56713867 C-82.23832031 68.02549072 -81.20320313 67.48384277 -80.13671875 66.92578125 C-79.23655029 66.45567627 -78.33638184 65.98557129 -77.40893555 65.5012207 C-74.87827906 63.92414492 -73.08801609 62.11331086 -71 60 C-69.12963867 58.91455078 -69.12963867 58.91455078 -67.23046875 58.0703125 C-62.96331336 56.04378367 -59.17516777 53.58253148 -55.3125 50.875 C-54.27657715 50.15376953 -54.27657715 50.15376953 -53.21972656 49.41796875 C-43.16598767 42.3669342 -33.67398301 34.93811171 -24.71875 26.53125 C-22.42087037 24.39184482 -20.08341193 22.3398101 -17.6875 20.3125 C-11.40605496 14.84868107 -6.40852185 8.36348955 -1.48046875 1.6875 C-0.99191406 1.130625 -0.50335938 0.57375 0 0 Z " fill="#F94127" transform="translate(446,112)"/>
<path d="M0 0 C2.25 3.0625 2.25 3.0625 4 6 C3.23816406 6.01417969 2.47632813 6.02835938 1.69140625 6.04296875 C-6.24569167 6.40960124 -12.7570502 7.58457256 -18.44140625 13.5 C-21.87749237 18.48052901 -21.71355946 24.17700244 -21 30 C-19.26675422 35.19973734 -16.44573242 37.86183594 -12 41 C-8.18573905 42.63468326 -5.12727867 43.3093994 -1 43 C1.17937994 42.0302306 1.17937994 42.0302306 3.20703125 40.59375 C4.33334961 39.84931641 4.33334961 39.84931641 5.48242188 39.08984375 C6.25134766 38.56519531 7.02027344 38.04054688 7.8125 37.5 C8.99489258 36.71302734 8.99489258 36.71302734 10.20117188 35.91015625 C12.14118305 34.61681547 14.07349525 33.31333833 16 32 C11.8259763 28.47207825 7.08581228 27.08373829 1.99609375 25.28125 C-0.73650247 24.11268212 -2.27304115 23.38307942 -4 21 C-3.875 18.4375 -3.875 18.4375 -3 16 C0.14611253 13.90259164 0.91188078 13.74671781 4.5 13.8125 C5.2734375 13.81894531 6.046875 13.82539063 6.84375 13.83203125 C9 14 9 14 12 15 C13.31860352 16.59472656 13.31860352 16.59472656 14.62890625 18.640625 C15.34530273 19.75244141 15.34530273 19.75244141 16.07617188 20.88671875 C16.56666016 21.66660156 17.05714844 22.44648438 17.5625 23.25 C18.05685547 24.01441406 18.55121094 24.77882812 19.06054688 25.56640625 C21.42649103 29.27379911 23.58269394 32.80678681 25 37 C24.01 36.67 23.02 36.34 22 36 C20.10113564 36.88119957 20.10113564 36.88119957 18.20703125 38.30859375 C17.49482422 38.80810547 16.78261719 39.30761719 16.04882812 39.82226562 C15.31083984 40.35529297 14.57285156 40.88832031 13.8125 41.4375 C13.06291016 41.96666016 12.31332031 42.49582031 11.54101562 43.04101562 C9.68728094 44.35161785 7.84088468 45.67143849 6 47 C6.99 47.86625 6.99 47.86625 8 48.75 C10 51 10 51 10 55 C5.26201551 57.81521896 2.25891305 58.18617217 -3.1875 57.75 C-11.44417495 57.58857918 -15.65839363 59.9859287 -22 65 C-23.74647982 66.27566673 -25.49656193 67.54641457 -27.25 68.8125 C-28.13816406 69.47121094 -29.02632812 70.12992187 -29.94140625 70.80859375 C-32.27820781 72.48285387 -34.62357569 74.08713945 -37.02734375 75.66015625 C-38.06036621 76.33630981 -38.06036621 76.33630981 -39.11425781 77.02612305 C-40.48075922 77.91518572 -41.85113869 78.79832008 -43.22558594 79.67504883 C-44.85105755 80.73287198 -46.43064788 81.86057835 -48 83 C-48 83.66 -48 84.32 -48 85 C-46.11889312 86.72434798 -44.23350204 88.33916638 -42.25 89.9375 C-41.71117187 90.38029297 -41.17234375 90.82308594 -40.6171875 91.27929688 C-38.33657287 93.14550714 -36.06246176 94.9572955 -33.62890625 96.62109375 C-32 98 -32 98 -31.6875 101.125 C-32 104 -32 104 -33 105 C-38.9580807 105 -41.79464897 103.01906969 -46.06640625 98.98046875 C-54 90.85454545 -54 90.85454545 -54 88 C-61.92811629 92.03360303 -68.7979032 97.14519639 -75.89941406 102.44677734 C-78.76316783 104.56430425 -81.66161885 106.6316568 -84.55981445 108.70166016 C-93.86776128 115.35754323 -102.93386392 122.28670395 -111.921875 129.3671875 C-113.85823461 130.88861291 -115.8021498 132.39957955 -117.75 133.90625 C-127.99871023 141.85192682 -138.23104605 149.95002392 -147.2421875 159.30078125 C-150.35109558 162.30605906 -153.77062703 164.94015443 -157.140625 167.64453125 C-160.89566106 170.73781915 -164.45282914 174.02384808 -168.00390625 177.34765625 C-170 179 -170 179 -172 179 C-172 175.27225757 -171.94455289 173.04822332 -169.3984375 170.22265625 C-168.01157319 169.04194745 -166.60393087 167.88533991 -165.1796875 166.75 C-163.12987879 165.10427545 -161.32711921 163.38605853 -159.5 161.5 C-154.87969163 156.81767407 -149.88639644 152.59783648 -144.87109375 148.34765625 C-138.72553068 143.12751386 -132.687416 137.83683184 -126.8125 132.3125 C-121.92170778 127.71961377 -116.92576852 123.34941805 -111.6796875 119.16015625 C-109.86750582 117.69931592 -108.08125541 116.20580825 -106.3203125 114.68359375 C-98.16570462 107.64713848 -89.44993327 101.64960999 -80.50195312 95.67431641 C-77.97804867 93.98531009 -75.46479484 92.2813541 -72.953125 90.57421875 C-71.34408027 89.48649044 -69.73471709 88.39923303 -68.125 87.3125 C-67.38233887 86.80734863 -66.63967773 86.30219727 -65.87451172 85.78173828 C-62.34774644 83.41835809 -59.05926771 81.36104858 -55 80 C-55.67804688 79.14019531 -56.35609375 78.28039062 -57.0546875 77.39453125 C-61.95378598 71.17566117 -66.84071955 64.94726117 -71.6875 58.6875 C-72.1211084 58.13102783 -72.5547168 57.57455566 -73.00146484 57.0012207 C-76 53.11583791 -76 53.11583791 -76 52 C-71.38 52 -66.76 52 -62 52 C-60.49065783 55.01868434 -60.82489328 57.67297229 -61 61 C-61.66 61.99 -62.32 62.98 -63 64 C-53.1 64 -43.2 64 -33 64 C-34.485 60.349375 -35.97 56.69875 -37.5 52.9375 C-42.41062768 40.76056907 -46.82153598 28.44501816 -51 16 C-42.3339484 12.38613709 -33.50350446 9.22769629 -24.65722656 6.08911133 C-22.95670714 5.48363329 -21.2578255 4.87353726 -19.56054688 4.2590332 C-17.08819809 3.36415869 -14.6112513 2.48331286 -12.1328125 1.60546875 C-11.37549835 1.32849655 -10.6181842 1.05152435 -9.83792114 0.76615906 C-3.58700357 -1.4178531 -3.58700357 -1.4178531 0 0 Z " fill="#F5442C" transform="translate(281,220)"/>
<path d="M0 0 C10.72265625 28.59375 10.72265625 28.59375 11.47509766 30.60083008 C12.17913693 32.47770517 12.88448255 34.35409006 13.58984375 36.23046875 C14.61345365 38.95840723 15.62361751 41.69104004 16.62890625 44.42578125 C16.90001221 45.15925781 17.17111816 45.89273438 17.45043945 46.6484375 C17.96909413 48.05221002 18.48474139 49.45709878 18.99682617 50.86328125 C20.10801855 53.86230997 21.21476656 56.32214984 23 59 C12.11 59 1.22 59 -10 59 C-9.34 57.68 -8.68 56.36 -8 55 C-8 52.03 -8 49.06 -8 46 C-14.6 46 -21.2 46 -28 46 C-28.67082039 54.40371521 -28.67082039 54.40371521 -26 59 C-29.63 59 -33.26 59 -37 59 C-36.401875 60.32 -35.80375 61.64 -35.1875 63 C-31.10990724 73.34634748 -29.74183711 83.95781147 -29.625 95 C-29.61114258 95.77657959 -29.59728516 96.55315918 -29.58300781 97.35327148 C-29.6374984 104.02478366 -31.18116318 109.88046162 -35.25 115.3125 C-39.88037001 119.83763433 -44.53320024 121.36130798 -50.95019531 121.46728516 C-51.99578613 121.4525415 -51.99578613 121.4525415 -53.0625 121.4375 C-53.79694336 121.43282715 -54.53138672 121.4281543 -55.28808594 121.42333984 C-64.39467784 121.18162409 -72.61292791 118.44801853 -81 115 C-81 114.34 -81 113.68 -81 113 C-80.38253906 113.19335938 -79.76507813 113.38671875 -79.12890625 113.5859375 C-76.42641038 114.41684186 -73.71577991 115.2136513 -71 116 C-69.94039063 116.31904297 -69.94039063 116.31904297 -68.859375 116.64453125 C-61.12099792 118.69726868 -51.14796721 119.72262638 -43.6796875 116.62109375 C-38.28422374 113.35707413 -36.1661775 108.77647334 -34 103 C-30.82841259 89.65745984 -33.2969369 71.98426433 -40 60 C-42.02551069 58.68071748 -42.02551069 58.68071748 -44 58 C-42.6875 56 -42.6875 56 -41 54 C-40.01 54 -39.02 54 -38 54 C-37.90203125 53.45504883 -37.8040625 52.91009766 -37.703125 52.34863281 C-36.32452498 45.06047364 -34.47084239 37.9157154 -32.54101562 30.7578125 C-31.99746453 28.74059038 -31.4593244 26.7219804 -30.921875 24.703125 C-26.19227637 7.03824783 -26.19227637 7.03824783 -18.375 1.5703125 C-12.36522665 -1.22590149 -6.50991894 -0.63254273 0 0 Z " fill="#FAFBFC" transform="translate(360,226)"/>
<path d="M0 0 C9.9 0 19.8 0 30 0 C34.49401241 10.11152792 34.49401241 10.11152792 36.04296875 14.3203125 C36.39045166 15.25721924 36.73793457 16.19412598 37.09594727 17.15942383 C37.63626587 18.62738403 37.63626587 18.62738403 38.1875 20.125 C41.746069 29.7290028 45.42856695 39.2758655 49.2565918 48.77587891 C49.61664307 49.68128418 49.97669434 50.58668945 50.34765625 51.51953125 C50.66742432 52.31464111 50.98719238 53.10975098 51.31665039 53.92895508 C52 56 52 56 52 59 C41.44 59 30.88 59 20 59 C20.66 58.67 21.32 58.34 22 58 C22.96070434 55.11788698 23.10581883 53.30149956 23.0625 50.3125 C23.041875 48.889375 23.02125 47.46625 23 46 C16.565 46.495 16.565 46.495 10 47 C15.85817478 54.72780502 21.83617816 62.28663771 28.1640625 69.63671875 C30 72 30 72 30 74 C28.02 74.99 28.02 74.99 26 76 C18.37966301 66.88316272 11.17610449 57.46752154 4 48 C2.18103027 51.63793946 2.74745798 55.24237393 4 59 C-1.61 59 -7.22 59 -13 59 C-11.35 57.02 -9.7 55.04 -8 53 C-6.77439846 50.0926331 -6.77439846 50.0926331 -6.0625 46.9375 C-5.74667969 45.72707031 -5.43085938 44.51664062 -5.10546875 43.26953125 C-4.93450684 42.59873535 -4.76354492 41.92793945 -4.58740234 41.23681641 C-3.43356022 36.84300861 -2.13904209 32.48810744 -0.875 28.125 C3.3129341 16.62269964 3.3129341 16.62269964 3 5 C2.01 3.35 1.02 1.7 0 0 Z " fill="#FAFAFB" transform="translate(196,226)"/>
<path d="M0 0 C23.03825796 -2.10321175 23.03825796 -2.10321175 29.0859375 2.19140625 C30.72439298 4.99252119 31.95504061 7.74062173 33.06542969 10.78564453 C34.99900452 15.36702482 37.86633504 19.48360577 40.5 23.6875 C41.55938497 25.41611926 42.61201216 27.14890737 43.65625 28.88671875 C44.10806641 29.63139404 44.55988281 30.37606934 45.02539062 31.14331055 C46 33 46 33 46 35 C46.66 35 47.32 35 48 35 C47.88998376 30.43700932 47.75938389 25.87483294 47.625 21.3125 C47.5940625 20.01892578 47.563125 18.72535156 47.53125 17.39257812 C47.47324219 15.52182617 47.47324219 15.52182617 47.4140625 13.61328125 C47.3826416 12.46641846 47.3512207 11.31955566 47.31884766 10.13793945 C47.00070451 7.00693344 46.49468675 4.76539039 45 2 C44.01 1.67 43.02 1.34 42 1 C42 0.67 42 0.34 42 0 C47.94 0 53.88 0 60 0 C59.01 1.65 58.02 3.3 57 5 C56.54817747 7.39128599 56.54817747 7.39128599 56.59594727 9.87866211 C56.58326309 10.8199144 56.57057892 11.76116669 56.55751038 12.73094177 C56.56044601 13.73625443 56.56338165 14.74156708 56.56640625 15.77734375 C56.5611644 16.82144913 56.55592255 17.8655545 56.55052185 18.94129944 C56.54410803 21.14599723 56.54543034 23.35072928 56.55395508 25.55541992 C56.56246168 28.92233438 56.53369864 32.28755005 56.50195312 35.65429688 C56.50034086 37.79947866 56.50091912 39.94466344 56.50390625 42.08984375 C56.49267227 43.09313217 56.48143829 44.09642059 56.46986389 45.13011169 C56.47924484 46.07451614 56.48862579 47.01892059 56.49829102 47.99194336 C56.49845718 48.81625351 56.49862335 49.64056366 56.49879456 50.48985291 C56.99868624 53.82361963 56.99868624 53.82361963 61 59 C52.42 59 43.84 59 35 59 C33.9275 57.1025 32.855 55.205 31.75 53.25 C26.33851608 43.73187915 20.65987444 34.37168589 15 25 C14.88352959 29.54144994 14.81265498 34.08251394 14.75 38.625 C14.71648437 39.91019531 14.68296875 41.19539063 14.6484375 42.51953125 C14.63554688 43.76347656 14.62265625 45.00742187 14.609375 46.2890625 C14.58842773 47.43068848 14.56748047 48.57231445 14.54589844 49.74853516 C14.86272228 53.73502485 14.86272228 53.73502485 19 59 C13.06 59 7.12 59 1 59 C2.32 57.02 3.64 55.04 5 53 C5.59361071 50.60500688 5.59361071 50.60500688 5.53344727 48.20727539 C5.5492836 47.30936783 5.56511993 46.41146027 5.58143616 45.48634338 C5.57647629 44.53307663 5.57151642 43.57980988 5.56640625 42.59765625 C5.57260483 41.60172958 5.57880341 40.60580292 5.58518982 39.57969666 C5.59227457 37.47932917 5.58913755 35.37890536 5.57641602 33.27856445 C5.5625581 30.07592743 5.59663315 26.87621836 5.63476562 23.67382812 C5.63571699 21.62760346 5.63385707 19.58137515 5.62890625 17.53515625 C5.64216446 16.58391373 5.65542267 15.6326712 5.66908264 14.65260315 C5.57873618 8.15720455 4.26434022 4.92436311 0 0 Z " fill="#FAFAFC" transform="translate(110,226)"/>
<path d="M0 0 C2.25 3.0625 2.25 3.0625 4 6 C3.23816406 6.01417969 2.47632813 6.02835938 1.69140625 6.04296875 C-6.24569167 6.40960124 -12.7570502 7.58457256 -18.44140625 13.5 C-21.87749237 18.48052901 -21.71355946 24.17700244 -21 30 C-19.33534387 34.9939684 -16.43718518 38.22552944 -12 41 C-9.36067066 42.18888709 -6.75861468 43.09631588 -4 44 C-7.36997708 47.79122421 -11.31212589 51.00417241 -16 53 C-19 52.3125 -19 52.3125 -21 51 C-20.85111328 52.11761719 -20.85111328 52.11761719 -20.69921875 53.2578125 C-21 56 -21 56 -23.08203125 58.0546875 C-23.98308594 58.65539062 -24.88414062 59.25609375 -25.8125 59.875 C-26.70582031 60.49117188 -27.59914062 61.10734375 -28.51953125 61.7421875 C-29.33808594 62.15726562 -30.15664062 62.57234375 -31 63 C-34 62 -34 62 -35.14746094 59.81713867 C-35.50614258 58.8604126 -35.86482422 57.90368652 -36.234375 56.91796875 C-36.64059082 55.8491748 -37.04680664 54.78038086 -37.46533203 53.67919922 C-37.88927246 52.52693848 -38.31321289 51.37467773 -38.75 50.1875 C-39.18812012 49.02234863 -39.62624023 47.85719727 -40.07763672 46.65673828 C-43.87715235 36.49369336 -47.49954334 26.26955167 -51 16 C-42.3339484 12.38613709 -33.50350446 9.22769629 -24.65722656 6.08911133 C-22.95670714 5.48363329 -21.2578255 4.87353726 -19.56054688 4.2590332 C-17.08819809 3.36415869 -14.6112513 2.48331286 -12.1328125 1.60546875 C-11.37549835 1.32849655 -10.6181842 1.05152435 -9.83792114 0.76615906 C-3.58700357 -1.4178531 -3.58700357 -1.4178531 0 0 Z " fill="#103F91" transform="translate(281,220)"/>
<path d="M0 0 C4.60036449 4.35824004 7.25656844 7.37170661 7.5 13.8125 C7.36239672 18.4978917 6.42485259 21.12156365 3.05859375 24.39453125 C-7.94052664 32.97259288 -19.11395564 33.32652689 -32.49438477 31.69604492 C-34.03403326 31.4973756 -35.57233036 31.28766997 -37.10839844 31.06298828 C-39.21431262 30.82937261 -39.21431262 30.82937261 -41.5625 32.4375 C-42.036875 32.953125 -42.51125 33.46875 -43 34 C-43.625 31.375 -43.625 31.375 -43 28 C-39.05815059 23.97659508 -34.78948536 22.14374857 -29.20703125 21.6953125 C-26.64166417 21.73076673 -24.07619896 21.82366952 -21.515625 21.984375 C-17.8850156 22.00051104 -15.35095165 21.33626906 -12 20 C-13.20358597 16.57440916 -14.35892646 14.46741391 -17 12 C-5.47835991 3.55353075 -5.47835991 3.55353075 0 0 Z " fill="#FBFBFC" transform="translate(303,255)"/>
<path d="M0 0 C2.25 3.0625 2.25 3.0625 4 6 C3.23816406 6.01417969 2.47632813 6.02835938 1.69140625 6.04296875 C-5.54338337 6.37716003 -11.29329172 7.30889235 -17 12 C-20.57238075 16.16777754 -21.56523535 20.67413305 -22 26 C-29.60646666 28.45600648 -37.11583017 30.64741104 -45 32 C-45.81604999 30.0848421 -46.62770632 28.16781166 -47.4375 26.25 C-47.88996094 25.18265625 -48.34242188 24.1153125 -48.80859375 23.015625 C-49.7444141 20.64692563 -50.42131239 18.46348943 -51 16 C-42.3339484 12.38613709 -33.50350446 9.22769629 -24.65722656 6.08911133 C-22.95670714 5.48363329 -21.2578255 4.87353726 -19.56054688 4.2590332 C-17.08819809 3.36415869 -14.6112513 2.48331286 -12.1328125 1.60546875 C-11.37549835 1.32849655 -10.6181842 1.05152435 -9.83792114 0.76615906 C-3.58700357 -1.4178531 -3.58700357 -1.4178531 0 0 Z " fill="#F73E24" transform="translate(281,220)"/>
<path d="M0 0 C0.99 0.495 0.99 0.495 2 1 C-4.66871751 6.70882635 -11.46196655 12.23262565 -18.4375 17.5625 C-19.11103516 18.08682617 -19.78457031 18.61115234 -20.47851562 19.15136719 C-23.92456084 21.75569606 -26.55163621 23.64858783 -31 24 C-30.505 24.99 -30.505 24.99 -30 26 C-32.85394114 28.0628122 -35.70819451 30.12519198 -38.5625 32.1875 C-39.36236328 32.76564453 -40.16222656 33.34378906 -40.98632812 33.93945312 C-42.570907 35.08423051 -44.15763524 36.22603912 -45.74658203 37.36474609 C-47.19450963 38.41547405 -48.62922447 39.48479261 -50.04638672 40.57666016 C-51.64394296 41.79174437 -53.31668897 42.90680305 -55 44 C-58.69790046 42.76736651 -58.9354846 41.79947549 -60.6875 38.4375 C-61.12449219 37.61121094 -61.56148438 36.78492188 -62.01171875 35.93359375 C-62.50091797 34.97646484 -62.50091797 34.97646484 -63 34 C-58.25 35.875 -58.25 35.875 -56 37 C-56 33.7 -56 30.4 -56 27 C-55.32759277 26.72438232 -54.65518555 26.44876465 -53.96240234 26.16479492 C-41.77223989 21.1457423 -29.66716257 16.02925185 -17.875 10.125 C-16.99505371 9.68567139 -16.11510742 9.24634277 -15.20849609 8.79370117 C-10.47439984 6.38643288 -5.98901507 3.80790722 -1.59814453 0.81591797 C-1.07075684 0.54666504 -0.54336914 0.27741211 0 0 Z " fill="#133E8E" transform="translate(361,203)"/>
<path d="M0 0 C0.95936305 3.04701212 0.99753118 5.01156006 0.21484375 8.09765625 C0.01656982 8.89075195 -0.1817041 9.68384766 -0.38598633 10.50097656 C-0.60923584 11.3462793 -0.83248535 12.19158203 -1.0625 13.0625 C-1.28639404 13.93487305 -1.51028809 14.80724609 -1.7409668 15.70605469 C-4.15134555 24.91127213 -7.02547324 33.96398055 -10 43 C-10.66 43 -11.32 43 -12 43 C-12.53109375 41.7934375 -13.0621875 40.586875 -13.609375 39.34375 C-14.32281533 37.72912189 -15.03636272 36.11454108 -15.75 34.5 C-16.09804688 33.70851563 -16.44609375 32.91703125 -16.8046875 32.1015625 C-19.06659208 26.99133364 -21.46422158 21.98017745 -24 17 C-16.37724679 10.76132393 -8.22991392 5.38902137 0 0 Z " fill="#103F91" transform="translate(332,236)"/>
<path d="M0 0 C1.82415872 3.64831744 0.17426325 7.64323232 -0.91699219 11.38549805 C-2.07495475 14.40707942 -3.0687799 16.42003173 -5.86279297 18.16015625 C-10.30895184 19.94945186 -14.93282908 20.8467861 -19.65039062 21.60791016 C-23.46974221 22.24526247 -27.22553578 23.13909133 -31 24 C-31 19.71 -31 15.42 -31 11 C-20.71759145 7.17098594 -10.44809963 3.35757293 0 0 Z " fill="#F83E24" transform="translate(197,246)"/>
<path d="M0 0 C4.62 0 9.24 0 14 0 C15.50934217 3.01868434 15.17510672 5.67297229 15 9 C14.01 10.485 14.01 10.485 13 12 C26.86 12.495 26.86 12.495 41 13 C35.375 17.5 35.375 17.5 32.44921875 19.578125 C31.52592773 20.23554688 31.52592773 20.23554688 30.58398438 20.90625 C29.95814453 21.3496875 29.33230469 21.793125 28.6875 22.25 C28.04232422 22.70890625 27.39714844 23.1678125 26.73242188 23.640625 C25.15587664 24.76172383 23.57806777 25.88104532 22 27 C18.60465587 24.42422169 15.86923161 21.85798924 13.25 18.5 C12.57453125 17.63503906 11.8990625 16.77007812 11.203125 15.87890625 C10.11257812 14.45384766 10.11257812 14.45384766 9 13 C8.59072266 12.46616699 8.18144531 11.93233398 7.75976562 11.38232422 C0 1.23699512 0 1.23699512 0 0 Z " fill="#0E3E90" transform="translate(205,272)"/>
<path d="M0 0 C-0.33 0.763125 -0.66 1.52625 -1 2.3125 C-2.17436686 4.99069135 -2.17436686 4.99069135 -2 8 C-2.53665283 8.22026855 -3.07330566 8.44053711 -3.6262207 8.66748047 C-15.44227507 13.54745196 -26.8604005 18.82827138 -38.09375 24.93359375 C-41.00182703 26.49431116 -43.83793243 28.01221919 -47 29 C-49.3125 28.125 -49.3125 28.125 -51 27 C-47.49019022 23.03079103 -43.41523591 20.61442036 -38.875 18 C-38.06619385 17.53231201 -37.2573877 17.06462402 -36.42407227 16.58276367 C-7.065099 0 -7.065099 0 0 0 Z " fill="#F6523C" transform="translate(115,278)"/>
<path d="M0 0 C2.73209999 3.29566054 5.07418641 6.60685876 7.234375 10.30078125 C7.80800781 11.27724609 8.38164062 12.25371094 8.97265625 13.25976562 C9.55917969 14.26716797 10.14570313 15.27457031 10.75 16.3125 C11.35199219 17.33923828 11.95398438 18.36597656 12.57421875 19.42382812 C14.05301827 21.94717651 15.52814588 24.47259623 17 27 C14.20083611 28.86610926 12.18061731 29.68785383 9 30.625 C8.13375 30.88539063 7.2675 31.14578125 6.375 31.4140625 C4 32 4 32 1 32 C-0.46098845 29.0780231 -0.11134901 26.50106525 -0.09765625 23.2421875 C-0.0962413 22.57913605 -0.09482635 21.91608459 -0.09336853 21.23294067 C-0.08776754 19.11358137 -0.075215 16.99432741 -0.0625 14.875 C-0.05748512 13.43880361 -0.05292219 12.00260556 -0.04882812 10.56640625 C-0.03779782 7.04423655 -0.02053259 3.52212855 0 0 Z " fill="#114092" transform="translate(124,249)"/>
<path d="M0 0 C0.7734375 0.00644531 1.546875 0.01289063 2.34375 0.01953125 C4.5 0.1875 4.5 0.1875 7.5 1.1875 C9.578125 3.76953125 9.578125 3.76953125 11.75 7 C12.84054687 8.58748047 12.84054687 8.58748047 13.953125 10.20703125 C15.5 13.1875 15.5 13.1875 15.234375 15.57421875 C14.99203125 16.10660156 14.7496875 16.63898438 14.5 17.1875 C10.0592429 16.48452301 6.02825525 14.97542447 1.875 13.3125 C1.20726562 13.05597656 0.53953125 12.79945313 -0.1484375 12.53515625 C-6.52070969 9.99899192 -6.52070969 9.99899192 -8.5 7.1875 C-8.375 4.625 -8.375 4.625 -7.5 2.1875 C-4.35388747 0.09009164 -3.58811922 -0.06578219 0 0 Z " fill="#154191" transform="translate(285.5,233.8125)"/>
<path d="M0 0 C3.19168512 1.35646618 5.60331583 3.5467246 8.1875 5.8046875 C12.24721657 9.32879142 12.24721657 9.32879142 16.54296875 12.5546875 C18.1875 13.9296875 18.1875 13.9296875 18.5 17.0546875 C18.1875 19.9296875 18.1875 19.9296875 17.1875 20.9296875 C11.30716972 20.9296875 8.41382307 19.02991024 4.1875 15.04296875 C-4.8125 5.53320312 -4.8125 5.53320312 -4.8125 1.9296875 C-1.8125 -0.0703125 -1.8125 -0.0703125 0 0 Z " fill="#F8F8FA" transform="translate(230.8125,304.0703125)"/>
<path d="M0 0 C2.53206678 1.26603339 2.67486071 2.16418084 3.7265625 4.74609375 C4.0359375 5.50083984 4.3453125 6.25558594 4.6640625 7.03320312 C4.98117187 7.82662109 5.29828125 8.62003906 5.625 9.4375 C5.94984375 10.22705078 6.2746875 11.01660156 6.609375 11.83007812 C9 17.72126116 9 17.72126116 9 20 C4.38 20 -0.24 20 -5 20 C-4.45484328 12.91296261 -2.39081395 6.67203894 0 0 Z " fill="#154595" transform="translate(340,244)"/>
<path d="M0 0 C3.20304731 3.65512907 4.57648461 7.74711253 6.1875 12.25 C6.46013672 12.99507813 6.73277344 13.74015625 7.01367188 14.5078125 C7.68179356 16.33635605 8.34171891 18.1678908 9 20 C4.05 20 -0.9 20 -6 20 C-4.35873462 13.12231652 -2.64714293 6.55483011 0 0 Z " fill="#F5462E" transform="translate(207,244)"/>
<path d="M0 0 C0.66 0.33 1.32 0.66 2 1 C1.09575563 7.73506149 -0.82518913 13.36051439 -6 18 C-11.05208582 20.68006992 -15.32522764 21.51840005 -21.0625 21.4375 C-21.79694336 21.43282715 -22.53138672 21.4281543 -23.28808594 21.42333984 C-32.39467784 21.18162409 -40.61292791 18.44801853 -49 15 C-49 14.34 -49 13.68 -49 13 C-48.38253906 13.19335938 -47.76507813 13.38671875 -47.12890625 13.5859375 C-44.42641038 14.41684186 -41.71577991 15.2136513 -39 16 C-38.29359375 16.21269531 -37.5871875 16.42539062 -36.859375 16.64453125 C-29.11926807 18.69772755 -19.13577337 19.7280931 -11.671875 16.609375 C-5.44577285 12.85914973 -3.00459404 6.34166366 0 0 Z " fill="#DFE6F1" transform="translate(328,326)"/>
<path d="M0 0 C4.62 0 9.24 0 14 0 C15.50934217 3.01868434 15.17510672 5.67297229 15 9 C14.01 10.485 14.01 10.485 13 12 C12.34 12 11.68 12 11 12 C10.67 12.66 10.34 13.32 10 14 C8.33041937 11.85637773 6.66423643 9.71026458 5 7.5625 C4.52304688 6.95083984 4.04609375 6.33917969 3.5546875 5.70898438 C0 1.11328125 0 1.11328125 0 0 Z " fill="#144495" transform="translate(205,272)"/>
<path d="M0 0 C2.56372612 2.1005319 3.55304049 4.51886813 4.859375 7.5234375 C2.75685639 8.19528368 0.65229737 8.86074718 -1.453125 9.5234375 C-3.21076172 10.0803125 -3.21076172 10.0803125 -5.00390625 10.6484375 C-8.140625 11.5234375 -8.140625 11.5234375 -11.140625 11.5234375 C-11.470625 9.2134375 -11.800625 6.9034375 -12.140625 4.5234375 C-10.5681085 3.62914376 -8.98208759 2.75856323 -7.390625 1.8984375 C-6.50890625 1.41117187 -5.6271875 0.92390625 -4.71875 0.421875 C-2.140625 -0.4765625 -2.140625 -0.4765625 0 0 Z " fill="#F63E24" transform="translate(136.140625,269.4765625)"/>
<path d="M0 0 C2.23046875 0.86328125 2.23046875 0.86328125 4.23046875 2.86328125 C4.23046875 4.18328125 4.23046875 5.50328125 4.23046875 6.86328125 C-1.66848696 10.90827945 -7.84256453 10.14077101 -14.76953125 9.86328125 C-14.76953125 9.20328125 -14.76953125 8.54328125 -14.76953125 7.86328125 C-12.3203125 5.8828125 -12.3203125 5.8828125 -9.08203125 3.67578125 C-8.02628906 2.93972656 -6.97054688 2.20367187 -5.8828125 1.4453125 C-2.76953125 -0.13671875 -2.76953125 -0.13671875 0 0 Z " fill="#164393" transform="translate(286.76953125,268.13671875)"/>
<path d="M0 0 C0.99 0.33 1.98 0.66 3 1 C3.86627829 3.58987338 4.53741658 6.03397329 5.125 8.6875 C5.29386719 9.39583984 5.46273438 10.10417969 5.63671875 10.83398438 C7.26087959 17.75904813 8.14609059 24.26336956 8.0625 31.375 C8.05798828 32.11105469 8.05347656 32.84710938 8.04882812 33.60546875 C8.03715142 35.40368158 8.01922011 37.20185197 8 39 C7.01 39 6.02 39 5 39 C5.03480469 38.09121094 5.06960938 37.18242187 5.10546875 36.24609375 C5.31107341 26.70016308 4.19146786 18.33244605 2 9 C1.60289939 7.18777723 1.20683923 5.37532565 0.8125 3.5625 C0.544375 2.386875 0.27625 1.21125 0 0 Z " fill="#F6F8FB" transform="translate(322,288)"/>
<path d="M0 0 C0.66 1.98 1.32 3.96 2 6 C-2.95 6 -7.9 6 -13 6 C-12.67 5.01 -12.34 4.02 -12 3 C-9.78515625 2.05078125 -9.78515625 2.05078125 -7.0625 1.3125 C-6.16660156 1.06113281 -5.27070313 0.80976563 -4.34765625 0.55078125 C-2 0 -2 0 0 0 Z " fill="#134292" transform="translate(214,258)"/>
<path d="M0 0 C1.17755859 -0.00773438 1.17755859 -0.00773438 2.37890625 -0.015625 C4.4375 0.25 4.4375 0.25 6.4375 2.25 C4.50191401 2.92220351 2.56395628 3.58758077 0.625 4.25 C-0.45394531 4.62125 -1.53289062 4.9925 -2.64453125 5.375 C-5.5625 6.25 -5.5625 6.25 -8.5625 6.25 C-8.25 4.375 -8.25 4.375 -7.5625 2.25 C-4.42838698 0.16059132 -3.58799528 -0.02364412 0 0 Z " fill="#F54A33" transform="translate(285.5625,233.75)"/>
<path d="M0 0 C0.99 0.33 1.98 0.66 3 1 C3.94921875 3.72265625 3.94921875 3.72265625 4.6875 7.0625 C4.93886719 8.16722656 5.19023437 9.27195312 5.44921875 10.41015625 C5.63097656 11.26480469 5.81273437 12.11945313 6 13 C5.01 13 4.02 13 3 13 C2.49487756 11.39743892 1.99608373 9.79288208 1.5 8.1875 C1.2215625 7.29417969 0.943125 6.40085937 0.65625 5.48046875 C0 3 0 3 0 0 Z " fill="#E2E8F2" transform="translate(322,288)"/>
<path d="M0 0 C0.97582031 0.20367187 1.95164062 0.40734375 2.95703125 0.6171875 C3.69308594 0.78476562 4.42914063 0.95234375 5.1875 1.125 C5.1875 1.785 5.1875 2.445 5.1875 3.125 C-7.3125 3.125 -7.3125 3.125 -10.8125 1.125 C-6.782179 -0.86437234 -4.36524185 -0.94667896 0 0 Z " fill="#CCD6E8" transform="translate(354.8125,337.875)"/>
<path d="M0 0 C0.66 0 1.32 0 2 0 C0.65014749 6.50383481 0.65014749 6.50383481 -2.375 8.8125 C-3.24125 9.204375 -4.1075 9.59625 -5 10 C-6.33525592 10.66280754 -7.66894 11.32880592 -9 12 C-7 9.33333333 -5 6.66666667 -3 4 C-2.48050781 3.25234375 -1.96101563 2.5046875 -1.42578125 1.734375 C-0.95527344 1.16203125 -0.48476563 0.5896875 0 0 Z " fill="#FD8978" transform="translate(446,112)"/>
<path d="M0 0 C0.33 1.32 0.66 2.64 1 4 C3.97 4.495 3.97 4.495 7 5 C6.071875 5.3403125 6.071875 5.3403125 5.125 5.6875 C2.38589791 7.37929835 1.94975528 8.99244161 1 12 C0.67 12 0.34 12 0 12 C-0.12375 11.21625 -0.2475 10.4325 -0.375 9.625 C-0.79117993 6.85942178 -0.79117993 6.85942178 -3 5 C-2.34 4.67 -1.68 4.34 -1 4 C-0.34786708 1.97536745 -0.34786708 1.97536745 0 0 Z " fill="#C2CFE3" transform="translate(200,171)"/>
<path d="M0 0 C0.66 0.33 1.32 0.66 2 1 C-1.3 3.64 -4.6 6.28 -8 9 C-8 6 -8 6 -6.8125 4.5 C-4.6460581 2.70708256 -2.503472 1.28383179 0 0 Z " fill="#2B3D81" transform="translate(361,203)"/>
<path d="M0 0 C-3.08809695 1.76462683 -4.23312136 2 -8 2 C-10.25 1 -10.25 1 -12 0 C-7.44729118 -2.48329572 -4.775353 -1.68541871 0 0 Z " fill="#CCD6E8" transform="translate(192,372)"/>
<path d="M0 0 C1.76462683 3.08809695 2 4.23312136 2 8 C1.34 8.66 0.68 9.32 0 10 C-1.60339848 6.88228073 -2.18974141 5.60988311 -1.125 2.1875 C-0.75375 1.465625 -0.3825 0.74375 0 0 Z " fill="#D2DBEB" transform="translate(274,122)"/>
<path d="M0 0 C0.99 0.33 1.98 0.66 3 1 C3 1.99 3 2.98 3 4 C0.36 3.67 -2.28 3.34 -5 3 C-4.360625 2.690625 -3.72125 2.38125 -3.0625 2.0625 C-1.06389179 1.1654837 -1.06389179 1.1654837 0 0 Z " fill="#D6DEEC" transform="translate(363,303)"/>
</svg>
